<svg width="14" height="15" viewBox="0 0 14 15" fill="none" xmlns="http://www.w3.org/2000/svg">
<path d="M0.666656 3C0.666656 4.10467 3.05466 5 5.99999 5C8.94532 5 11.3333 4.10467 11.3333 3M0.666656 3C0.666656 1.89533 3.05466 1 5.99999 1C8.94532 1 11.3333 1.89533 11.3333 3M0.666656 3V7M11.3333 3V7M0.666656 7C0.666656 8.10467 3.05466 9 5.99999 9C6.74532 9 7.45532 8.94267 8.09999 8.83933M0.666656 7V11C0.666656 12.1047 3.05466 13 5.99999 13C6.10466 13 6.20799 12.9987 6.31066 12.9967M8.66666 11.6667H12.6667M12.6667 11.6667L10.6667 9.66667M12.6667 11.6667L10.6667 13.6667" stroke="#7D7D7D" stroke-width="1.25" stroke-linecap="round" stroke-linejoin="round"/>
</svg>
